<?xml version="1.0" encoding="UTF-8"?>
<svg width="512px" height="512px" viewBox="0 0 512 512" version="1.1" xmlns="http://www.w3.org/2000/svg" xmlns:xlink="http://www.w3.org/1999/xlink">
    <title>Logo-Rent-Meta</title>
    <g id="Logo-Rent-Meta" stroke="none" stroke-width="1" fill="none" fill-rule="evenodd">
        <rect id="Rectangle" fill="#FF6600" x="0" y="0" width="512" height="512"></rect>
        <g id="Group" transform="translate(57.000000, 116.090153)">
            <path d="M30.5644405,146.9367 C30.5644405,142.361993 30.8874685,138.486471 31.5348565,135.310134 C32.1815785,132.133099 33.4350602,129.104693 35.2946357,126.224218 C37.1542112,123.343744 39.7417651,121.078021 43.0566315,119.426354 C46.372164,117.773989 50.7600161,116.482381 56.2181898,115.550134 C61.6763635,114.618585 62.277795,114.152462 69.9592003,114.152462 L69.9592003,83.5285793 C58.396797,83.5285793 55.3283643,84.3338283 48.8198502,85.9429306 C42.310004,87.5527307 36.2244234,90.5602029 30.5644405,94.9646495 L30.5644405,85.8159329 L9.04828667e-12,85.8159329 L9.04828667e-12,209.45514 L30.5644405,209.45514 L30.5644405,146.9367 Z" id="Fill-1" fill="#FFFFFF"></path>
            <polygon id="Clip-4" points="84.3011552 6.93810216e-05 307.166018 6.93810216e-05 307.166018 83.3495069 84.3011552 83.3495069"></polygon>
            <polygon id="Fill-3" fill="#FFFFFF" points="292.709436 83.3495069 195.733586 35.0297858 98.7570284 83.3495069 84.3011552 55.5228592 195.733586 -9.98890892e-13 307.166018 55.5228592"></polygon>
            <path d="M133.746652,83.5285793 C145.582407,83.5285793 156.278181,86.5766286 165.831187,92.6684249 C175.383497,98.7609383 182.782585,106.833859 188.023577,116.89149 C193.264569,126.94195 195.885761,137.932422 195.885761,149.859322 C195.885761,153.601446 195.632277,157.085443 195.125309,160.30486 L101.029103,160.30486 C102.889147,168.314683 106.840434,174.712647 112.88575,179.499468 C118.931066,184.285572 126.433219,186.680417 135.395691,186.680417 C141.314265,186.680417 146.977266,185.505222 152.388872,183.154833 C157.799782,180.80516 162.238538,177.279576 165.704445,172.578797 L187.516609,190.466996 C181.936478,198.562861 174.539479,204.915653 165.323523,209.531106 C156.108263,214.145843 146.216118,216.45106 135.649175,216.45106 C123.474977,216.45106 112.357194,213.57868 102.29722,207.833204 C92.2372453,202.088445 84.3311891,194.16825 78.5825329,184.069032 C72.834573,173.970532 69.9592003,162.830919 69.9592003,150.643024 C69.9592003,141.678131 71.4592131,133.123374 74.4613278,124.987355 C77.4627462,116.847034 81.6675174,109.706239 87.0791234,103.573572 C92.4907294,97.4330185 99.2317339,92.560155 107.306315,88.9492456 C115.380897,85.334034 124.194342,83.5285793 133.746652,83.5285793 Z M133.493168,113.42972 C126.137952,113.42972 119.670627,115.49617 114.090496,119.629786 C108.511061,123.766988 104.538186,129.273697 102.169781,136.149195 L163.67518,136.149195 C162.745506,129.706059 159.404949,124.311923 153.656989,119.958181 C147.908333,115.60444 141.187523,113.42972 133.493168,113.42972 Z" id="Combined-Shape" fill="#FFFFFF"></path>
            <path d="M202.881681,85.8159329 L234.050125,85.8159329 L234.050125,94.9646495 C237.101767,92.594259 239.677969,90.7500016 241.780769,89.4353664 C243.883569,88.124918 247.119953,86.8109806 251.489919,85.4998343 C255.859207,84.1858969 260.602054,83.5285793 265.713706,83.5285793 C272.475812,83.5285793 278.741423,84.5885214 284.513936,86.7056144 C290.286449,88.8220096 295.480963,91.9990446 300.098158,96.2360217 C304.715353,100.472301 308.323259,106.169054 310.920516,113.324884 C313.517773,120.484203 314.816401,128.765567 314.816401,138.168977 L314.816401,209.45514 L283.647957,209.45514 L283.647957,143.378672 C283.647957,123.893602 275.361049,114.152462 258.787234,114.152462 C242.296281,114.152462 234.050125,123.726132 234.050125,142.870682 L234.050125,209.45514 L202.881681,209.45514 L202.881681,85.8159329 Z" id="Fill-8" fill="#FFFFFF"></path>
            <path d="M315.3026,87.9349565 L335.425019,87.9349565 L335.425019,56.1207033 L368.221892,56.1207033 L368.221892,87.9349565 L398.403367,87.9349565 L398.403367,119.035718 L368.221892,119.035718 L368.221892,169.028839 C368.221892,180.253455 372.969072,185.863999 382.464867,185.863999 C384.90447,185.863999 387.45242,185.757433 390.108717,185.545009 C392.765014,185.32835 394.835089,185.137098 396.315354,184.9649 L398.403367,184.578866 L398.403367,213.238512 C391.957793,215.378987 383.597848,216.450989 373.056611,216.450989 C360.94757,216.450989 351.649813,212.808723 345.159752,205.527014 C338.668973,198.24601 335.425019,188.350281 335.425019,175.839827 L335.425019,119.035718 L315.3026,119.035718 L315.3026,87.9349565 Z" id="Fill-10" fill="#FFFFFF"></path>
        </g>
    </g>
</svg>